# xmcd
#
# Track frame offsets: 
#        150
#        19202
#        34615
#        52465
#        69135
#        86235
#        108120
#        126222
#        141220
#        159150
#
# Disc length: 2407 seconds
#
# Revision: 1
# Processed by: cddbd v1.5.2PL0 Copyright (c) Steve Scherf et al.
# Submitted via: ExactAudioCopy v0.99pb5
#
DISCID=8209650a
DTITLE=Joe Louis Walker - Cold is the Night
DYEAR=1900
DGENRE=Blues
TTITLE0=Cold is the Night
TTITLE1=Ten More Shows to Play
TTITLE2=Moanin' News
TTITLE3=One Woman
TTITLE4=I Need Someone
TTITLE5=Brother Go Ahead and Take Her
TTITLE6=Fuss and Fight
TTITLE7=Gettin' Even
TTITLE8=Ridin' High
TTITLE9=Don't Play Games
EXTD=1988  Hightone Records  HCD 8006 \nProduced by Bruce Bromberg and D
EXTD=ennis Walker
EXTT0=
EXTT1=
EXTT2=
EXTT3=
EXTT4=
EXTT5=
EXTT6=
EXTT7=
EXTT8=
EXTT9=
PLAYORDER=
